# xmcd
#
# Track frame offsets: 
#        150
#        27387
#        47657
#        74860
#        92757
#        107317
#        128380
#        148445
#
# Disc length: 2231 seconds
#
# Revision: 0
# Processed by: cddbd v1.5.2PL0 Copyright (c) Steve Scherf et al.
# Submitted via: ExactAudioCopy v1.0b3
#
DISCID=7008b508
DTITLE=Chrome - Liquid Forest
DYEAR=1990
DGENRE=Avantgarde
TTITLE0=You Remain
TTITLE1=Down The River
TTITLE2=Hey Hey
TTITLE3=Look Away
TTITLE4=Tibetian Nights
TTITLE5=Let Me Have It
TTITLE6=As Rabbits Run
TTITLE7=We Can Be Together
EXTD=
EXTT0=
EXTT1=
EXTT2=
EXTT3=
EXTT4=
EXTT5=
EXTT6=
EXTT7=
PLAYORDER=
